<svg width="400" height="400" viewBox="0 0 400 400" fill="none" xmlns="http://www.w3.org/2000/svg">
<g clip-path="url(#clip0_3157_507)">
<rect width="400" height="400" fill="white"/>
<path d="M-11.3594 635.828L1.94141 607.896L36.5234 622.527L71.1055 642.922L59.5781 664.646V685.041L19.6758 681.051L-6.03906 664.646L-11.3594 635.828Z" fill="white"/>
<path d="M76.4258 667.307L94.6035 642.922L259.533 605.236L252.439 554.25L221.848 531.195L215.641 495.727L241.799 466.908L232.045 408.385L209.877 405.725L202.783 384.887L129.629 395.084L64.4551 422.129L50.2676 416.809L100.367 340.107L57.8047 297.988L40.0703 236.805L68.002 149.463L120.318 48.377L164.211 113.551L237.365 110.447L325.15 43.5L349.979 124.635L383.23 224.834L362.393 301.979L402.738 366.266L430.227 483.756V595.482L480.77 605.236L491.854 685.041L435.547 736.027L272.834 762.186L229.828 714.303L89.7266 698.785L76.4258 667.307Z" fill="white"/>
<path d="M-74.3164 451.396L-88.5039 384.449L-30.4238 405.73L27.2129 451.396H55.1445L138.053 423.465L226.725 401.74L237.809 461.594L219.631 485.092L213.867 511.25L226.725 536.078L253.326 548.492L258.646 602.139L77.3125 639.824L-38.8477 581.301L-54.3652 531.201L-44.168 479.328L-74.3164 451.396Z" fill="white"/>
<path d="M-74.3164 375.139L-60.5723 362.281L-4.26562 384.449L46.7207 432.332L118.102 398.637L202.783 384.449L207.217 401.74L131.846 417.258L67.1152 445.189H33.4199L-26.4336 401.74L-74.3164 375.139Z" fill="white"/>
<path d="M126.905 726.423C105.938 723.467 85.8574 719.142 69.1136 705.631C66.1688 703.255 63.0544 705.187 60.2129 705.548C45.5328 707.412 30.9224 707.263 16.8984 702.513C-2.85013 695.824 -19.0226 684.149 -26.7259 664.009C-34.8837 642.68 -32.5823 622.045 -19.4299 602.988C-18.7744 602.039 -17.7653 601.256 -18.1701 599.524C-25.8369 595.946 -33.9209 592.832 -42.1851 590.222C-47.8671 588.427 -50.9429 584.554 -52.2449 578.968C-55.9221 563.193 -59.6101 547.42 -63.2694 531.64C-63.7837 529.422 -64.8814 527.973 -67.2728 527.529C-84.2426 524.379 -92.6917 511.953 -99.0563 497.653C-104.325 485.815 -105.434 473.539 -101.173 460.987C-99.7757 456.869 -98.2722 452.72 -95.2843 449.695C-91.2396 445.599 -91.4592 441.115 -92.7526 436.331C-97.3301 419.399 -100.64 402.195 -103.987 384.996C-106.572 371.713 -100.47 364.944 -87.3614 367.379C-82.355 368.309 -79.6979 364.996 -76.2709 363.077C-72.8285 361.15 -68.8895 359.475 -69.7263 353.92C-70.1281 351.253 -67.4265 350.116 -64.7722 350.042C-59.7445 349.904 -55.158 351.779 -50.6959 353.609C-30.3007 361.974 -10.4478 371.416 7.39106 384.588C18.3674 392.692 28.4196 401.771 36.6346 412.754C37.2361 413.558 38.0205 414.226 39.2188 415.478C41.0951 409.561 44.2731 404.755 46.3817 399.467C54.8282 378.285 66.8964 359.296 81.1583 341.636C83.2916 338.995 82.96 337.465 80.1915 335.688C69.1465 328.596 59.558 319.951 52.1399 309.005C50.1476 306.066 48.1123 303.183 46.6418 299.932C45.2684 296.895 43.191 295.655 39.9087 297.332C33.3047 300.707 26.1599 302.663 19.2029 305.112C17.3634 305.76 15.4853 306.142 13.5523 306.011C10.3118 305.792 7.32108 304.886 5.99296 301.561C4.59193 298.053 6.74258 295.601 9.0404 293.444C13.897 288.883 20.0265 286.581 26.1141 284.309C35.7247 280.721 35.8997 280.745 33.1929 271.284C31.5164 265.424 30.6541 259.458 30.2469 253.446C30.0287 250.225 28.7162 248.997 25.7299 248.729C16.0417 247.858 6.36125 246.902 -3.3213 245.969C-8.25559 245.494 -11.2486 242.904 -11.5125 238.91C-11.8013 234.54 -8.86581 231.444 -3.60035 230.477C6.56593 228.609 16.7204 230.111 26.8785 230.547C27.7444 230.584 28.6245 230.976 29.7531 230.062C30.6537 226.405 30.8997 222.274 31.5164 218.267C35.781 190.56 47.8946 166.473 65.2291 144.904C69.8773 139.12 70.4921 132.486 71.5016 125.999C73.8961 110.611 77.9597 95.786 83.3856 81.2085C87.6294 69.8071 92.31 58.7379 99.844 49.0864C101.291 47.2324 102.912 45.4652 104.681 43.919C111.16 38.2554 117.045 37.5257 124.595 41.5348C132.284 45.6177 138.496 51.4407 143.781 58.3198C153.394 70.8332 163.158 83.2417 170.45 97.3374C172.109 100.545 174.09 101.778 178.156 101.104C198.051 97.8069 218.068 97.1644 238.105 99.9531C242.039 100.501 244.498 99.2271 246.982 95.9008C261.926 75.8882 277.408 56.3139 298.28 41.925C302.045 39.3295 306.316 37.5178 310.201 35.1549C320.302 29.0116 332.845 32.4858 339.616 44.164C344.742 53.0047 347.308 62.8577 350.333 72.5529C354 84.3091 354.945 96.5124 357.009 108.522C357.813 113.2 359.119 117.936 358.082 122.946C357.41 126.185 358.923 129.232 361.549 131.607C376.753 145.359 384.972 163.354 390.469 182.423C394.093 194.991 396.431 208.117 395.239 221.488C395.061 223.485 395.567 225.542 395.794 227.975C402.565 228.114 409.31 227.833 415.932 229.376C419.957 230.314 423.353 231.729 424.054 236.279C424.573 239.647 421.588 243.45 417.178 245.016C412.096 246.82 406.715 246.898 401.448 246.671C396.44 246.455 393.583 247.595 392.931 253.227C391.795 263.05 388.092 272.258 384.901 281.49C385.983 283.229 387.673 283.223 389.211 283.634C394.484 285.043 399.768 286.379 404.711 288.841C408.314 290.636 411.145 293.084 410.471 297.289C409.747 301.8 405.907 303.13 401.871 303.574C395.526 304.272 389.648 302.017 383.666 300.485C382.239 300.12 380.849 299.606 379.444 299.155C377.856 298.646 376.267 298.117 375.145 299.991C374.115 301.711 374.818 303.161 376 304.392C380.603 309.186 384.782 314.309 388.597 319.757C393.751 327.115 397.782 335.116 402.045 342.977C404.067 346.706 405.537 350.734 407.261 354.626C413.991 369.827 419.684 385.381 424.829 401.213C427.782 410.298 429.912 419.601 432.723 428.706C435.444 437.519 437.541 446.695 438.784 456.026C439.543 461.721 440.975 467.488 442.207 473.197C443.703 480.128 444.089 487.282 445.092 494.271C446.078 501.139 446.336 508.037 447.236 514.886C448.263 522.698 447.696 530.602 448.753 538.467C449.515 544.136 447.99 550.091 448.55 555.814C449.107 561.497 447.429 566.82 447.303 572.344C447.251 574.631 448.175 575.807 450.247 576.639C460.289 580.67 469.689 586.009 478.059 592.767C489.712 602.178 499.108 614.008 504.042 627.982C511.872 650.156 510.403 672.259 498.644 693.258C494.385 700.863 490.08 708.446 484.692 715.256C478.805 722.697 471.42 728.743 463.596 734.044C448.795 744.071 433.099 752.653 416.165 758.385C396.368 765.086 376.072 769.921 355.268 772.774C347.823 773.796 340.355 774.451 332.91 775.188C322.168 776.252 311.338 776.347 300.58 774.873C295.631 774.195 290.684 775.1 285.686 774.374C271.307 772.285 256.733 771.094 244.322 762.313C234.232 755.174 228.07 745.747 227.878 733.135C227.817 729.158 226.353 727.845 222.591 728.242C207.012 729.886 191.334 729.724 175.791 728.782C166.037 728.191 156.252 728.756 146.463 727.503C140.224 726.705 133.687 727.053 126.905 726.423ZM72.3572 242.055C75.7552 243.126 78.9396 244.649 81.9832 246.497C85.4155 248.582 86.2285 251.748 85.3205 255.321C84.4225 258.853 81.6309 260.028 78.1998 260.07C74.8934 260.111 71.8054 259.102 68.6709 258.268C64.209 257.08 59.8997 255.131 54.4743 255.152C55.7398 260.535 56.9807 265.471 58.0387 270.446C58.6408 273.277 60.156 273.995 62.833 273.317C66.8316 272.305 70.8375 271.223 74.9067 270.613C79.6436 269.903 83.2811 272.298 84.2026 276.193C85.0394 279.731 82.725 283.246 78.4502 284.939C74.7852 286.39 71.1222 287.845 67.6892 289.207C67.502 291.188 68.2097 292.325 68.9859 293.403C77.2324 304.856 87.8069 313.744 99.9085 320.79C106.655 324.719 113.658 328.171 121.102 330.765C127.273 332.915 129.482 339.127 126.568 344.362C123.925 349.109 119.606 350.379 111.767 348.712C104.073 347.077 104.177 347.151 99.7815 353.292C86.8409 371.371 76.3556 390.827 67.1694 411.02C66.5784 412.319 65.5772 413.552 66.1269 415.171C66.4442 415.122 66.7631 415.152 66.9972 415.025C68.815 414.039 70.6506 413.08 72.4178 412.008C95.2242 398.181 119.879 389.035 145.768 383.008C161.857 379.262 178.127 376.857 194.644 376.022C205.823 375.458 209.137 378.265 209.346 389.23C209.352 389.524 209.459 389.819 209.443 390.109C209.243 393.592 210.563 394.975 214.199 394.018C216.603 393.385 219.142 393.119 221.636 392.996C229.069 392.63 237.283 396.885 238.582 405.225C240.284 416.147 242.429 427.001 244.398 437.881C245.402 443.433 246.437 448.98 247.556 455.057C252.951 452.459 257.419 449.728 261.587 446.488C268.51 441.108 273.835 434.183 279.645 427.732C284.568 422.267 291.836 422.48 296.641 428.331C297.93 429.901 298.375 431.443 297.898 433.608C295.02 446.665 286.163 455.705 276.658 463.834C269.165 470.241 260.107 474.574 250.617 477.738C246.005 479.276 241.458 481.067 237.014 483.04C228.202 486.953 222.1 497.105 223.25 506.403C225.68 526.057 234.266 530.512 251.483 532.418C259.581 533.314 267.482 530.993 275.46 529.49C292.253 526.325 307.119 519.273 320.443 508.907C325.602 504.893 330.406 506.489 335.605 510.516C338.275 512.584 338.2 519.208 335.648 522.845C330.322 530.434 323.796 536.752 315.498 541.061C300.132 549.04 283.817 553.814 266.557 555.205C263.066 555.486 261.929 556.805 262.633 560.314C264.804 571.131 267.639 581.795 269.725 592.642C271.027 599.416 270.197 605.448 267.644 611.538C266.821 613.499 265.457 614.803 263.531 615.923C257.522 619.417 250.909 619.801 244.298 620.007C233.55 620.341 222.86 621.358 212.158 622.276C201.603 623.182 191.246 625.388 180.798 626.989C161.633 629.925 143.122 635.12 124.944 641.682C116.264 644.816 107.95 649.525 98.1244 647.518C97.2457 647.338 96.1317 647.95 95.2135 648.379C85.5533 652.896 79.6476 666.521 82.3529 676.854C85.1855 687.673 93.4676 692.076 102.956 694.798C118.21 699.174 133.98 700.59 149.745 701.463C175.317 702.879 200.791 706.581 226.502 704.971C228.622 704.838 230.621 705.169 232.429 706.362C235.323 708.272 237.565 707.601 239.646 704.887C244.616 698.406 251.852 694.9 259.213 692.734C270.159 689.513 281.53 687.905 292.993 686.995C296.991 686.678 300.902 687.911 304.609 687.21C308.319 686.508 311.834 686.354 315.533 686.657C319.638 686.993 323.798 687.227 327.898 686.96C345.722 685.799 363.169 682.552 380.291 677.395C387.048 675.36 392.397 670.831 398.593 667.815C400.955 666.665 398.24 662.491 399.996 660.032C400.334 659.558 400.56 658.994 400.778 658.447C403.822 650.802 407.614 643.356 409.726 635.461C413.623 620.901 417.031 606.217 418.851 591.151C420.707 575.785 420.596 560.409 420.698 545.027C420.727 540.546 420.802 536.014 420.534 531.51C419.747 518.263 417.88 505.124 416.632 491.933C415.367 478.573 412.612 465.484 409.578 452.588C405.378 434.739 401.293 416.809 395.736 399.254C391.874 387.057 388.195 374.762 383.172 363.054C377.137 348.986 369.836 335.455 362.891 321.79C361.269 318.598 359.066 316.621 354.693 318.901C349.391 321.666 343.512 319.372 339.59 314.089C336.98 310.572 337.554 307.964 342.222 302.405C344.461 299.739 347.113 297.348 348.058 293.642C343.405 291.437 338.51 291.182 333.776 290.26C326.245 288.795 318.704 287.377 311.192 285.821C307.26 285.006 304.155 282.959 304.157 278.52C304.158 274.068 307.388 272.09 311.219 271.195C313.495 270.663 315.895 270.557 318.247 270.479C331.053 270.056 343.453 273.208 356.003 274.982C358.799 275.377 360.186 274.666 361.048 272.201C362.998 266.629 365.064 261.096 366.919 255.493C368.565 250.522 368.104 249.778 363.049 250.555C351.696 252.301 340.409 254.477 329.066 256.292C321.965 257.428 314.946 259.699 307.609 258.431C304.105 257.825 301.507 255.954 300.89 252.298C300.298 248.784 302.678 246.919 305.404 245.435C312.337 241.66 319.85 239.481 327.448 237.61C340.617 234.367 353.844 231.37 367.222 229.108C370.049 228.629 370.855 227.46 370.748 224.407C370.472 216.471 369.879 208.632 368.788 200.737C367.624 192.318 365.432 184.267 362.374 176.502C357.19 163.339 349.508 151.646 339.681 141.394C336.621 138.202 335.033 134.491 335.158 129.819C335.286 125.074 334.707 120.281 334.107 115.551C333.109 107.688 332.03 99.8262 330.651 92.023C328.783 81.4554 327.417 70.7658 323.571 60.6271C322.031 56.5675 319.456 55.4546 315.717 57.7871C312.713 59.6604 309.609 61.485 306.969 63.8078C293.517 75.6424 281.749 89.0467 270.964 103.318C267.582 107.793 264.78 112.727 261.198 117.022C254.241 125.363 244.59 125.135 235.078 124.011C224.091 122.713 213.132 122.504 202.084 122.696C190.568 122.897 179.174 125.067 167.633 124.452C162.133 124.159 157.617 121.982 154.541 117.351C152.829 114.775 151.399 112.006 149.918 109.283C141.803 94.3677 133.617 79.5043 122.412 66.5749C118.893 62.5146 116.52 62.5892 114.228 67.4303C104.376 88.2452 98.11 110.187 94.4647 132.866C93.1393 141.113 91.3661 148.673 85.736 155.532C76.4518 166.843 69.3564 179.582 64.127 193.433C59.7314 205.075 55.8787 216.755 54.1669 229.097C53.3794 234.775 54.2363 236.268 59.4491 237.955C63.521 239.273 67.6024 240.563 72.3572 242.055ZM105 441.504C93.9995 445.755 83.0371 450.109 71.974 454.189C68.9314 455.312 68.334 456.804 69.0017 459.837C74.453 484.6 79.6347 509.422 85.149 534.17C90.885 559.913 96.877 585.599 102.819 611.296C103.698 615.096 103.414 619.195 105.689 623.196C151.942 603.799 199.936 594.52 249.9 597.343C250.133 596.756 250.369 596.466 250.326 596.225C248.006 583.323 245.634 570.429 243.349 557.521C242.902 554.999 241.508 553.809 239.128 553.075C235.332 551.905 231.34 551.494 227.711 549.637C215.854 543.571 207.685 534.535 203.477 521.718C200.768 513.468 199.657 504.948 202.032 496.925C206.171 482.945 213.602 470.793 226.976 463.383C228.437 462.573 229.788 461.786 229.371 459.675C226.553 445.388 226.388 430.733 223.334 416.462C222.577 412.925 220.843 412.086 217.758 412.697C200.987 416.02 184.143 419.024 167.47 422.784C146.461 427.521 126.041 434.379 105 441.504ZM-54.1141 450.154C-43.7595 458.312 -38.0263 469.205 -35.8983 481.984C-33.4764 496.527 -34.4319 510.519 -44.4923 522.463C-46.048 524.31 -45.9424 526.199 -45.3872 528.27C-42.0376 540.759 -38.2635 553.158 -35.5534 565.786C-34.4323 571.01 -31.8947 573.195 -27.3389 574.718C-0.298805 583.757 24.911 596.5 48.4577 612.562C49.4461 613.237 50.4569 614.472 52.094 613.368C50.6912 607.676 49.4147 601.953 47.8641 596.306C43.1105 578.993 39.8974 561.327 35.7141 543.882C32.2495 529.435 29.3764 514.846 26.1214 500.347C23.1842 487.264 19.7144 474.254 19.3461 460.766C19.1074 452.024 15.7998 445.598 7.60571 441.971C6.27939 441.384 5.12691 440.374 3.94867 439.487C-21.7686 420.126 -49.7248 404.7 -79.3085 392.143C-80.5455 391.618 -81.8323 390.371 -83.3306 391.626C-83.3836 391.974 -83.5235 392.287 -83.458 392.548C-79.549 408.119 -75.1261 423.565 -72.0591 439.343C-71.6948 441.217 -70.33 442.344 -68.5216 442.975C-63.6228 444.686 -59.0918 447.153 -54.1141 450.154ZM414.162 726.408C418.773 725.64 422.388 722.602 426.581 720.942C438.136 716.366 448.221 709.335 457.16 701.078C471.233 688.078 480.445 672.182 481.409 652.405C481.626 647.954 481.604 643.381 480.221 639.264C476.75 628.921 470.886 619.908 462.338 613.017C457.172 608.853 451.591 605.127 444.748 602.292C445.243 612.597 440.891 620.916 438.904 629.766C438.151 633.121 438.238 635.492 440.7 637.634C450.273 645.963 448.566 658.948 442.686 667.325C437.036 675.375 429.209 680.6 421.302 686.095C410.794 693.397 398.828 696.753 387.102 700.939C376.645 704.673 365.707 706.308 354.868 708.294C347.498 709.645 340.024 710.652 332.552 711.166C319.698 712.05 306.806 712.349 293.938 713.056C288.261 713.367 282.611 714.278 276.966 714.778C270.881 715.318 265.387 717.23 260.168 719.864C251.897 724.039 251.602 734.055 259.356 739.097C265.765 743.265 272.88 745.249 280.481 745.905C286.883 746.456 293.266 746.255 299.642 746.333C307.759 746.433 315.8 745.918 323.849 745.461C330.078 745.108 336.326 744.393 342.532 743.682C347.746 743.084 353.36 743.039 358.466 742.147C369.322 740.25 380.251 738.38 390.794 734.676C398.368 732.014 406.223 730.145 414.162 726.408ZM20.0418 676.718C30.2651 680.518 40.8794 681.836 51.7225 681.741C55.0036 681.713 56.2712 680.107 55.6743 676.939C53.8011 666.997 57.124 658.386 62.469 650.281C63.2592 649.083 64.4502 648.038 64.1484 645.955C58.194 642.652 52.1023 639.122 46.1906 635.268C33.3647 626.906 20.628 618.35 6.40847 612.362C3.80265 611.265 2.2376 611.682 1.02383 614.114C-0.620255 617.409 -2.42527 620.629 -3.93736 623.983C-9.74706 636.866 -7.538 659.33 6.47645 668.843C10.6383 671.668 14.8341 674.377 20.0418 676.718ZM44.4299 507.118C50.2691 533.59 55.8814 560.115 62.0546 586.51C64.6753 597.714 66.2225 609.131 69.2147 620.237C71.1459 627.405 71.2787 627.354 78.5405 627.424C80.6065 627.444 82.6708 627.637 84.7369 627.662C89.6134 627.721 90.0883 627.163 88.9255 622.229C86.6273 612.476 84.0998 602.776 81.9164 592.999C77.682 574.038 73.5293 555.057 69.5103 536.049C64.8172 513.852 60.4062 491.597 56.7847 469.196C55.662 462.251 55.7554 462.215 48.8274 462.355C44.3486 462.446 39.872 462.251 34.7954 461.499C37.3171 477.22 40.4225 491.886 44.4299 507.118ZM80.792 431.233C81.7719 430.908 82.7796 430.65 83.7276 430.249C116.725 416.31 150.84 406.018 185.882 398.662C191.129 397.561 196.641 397.59 201.965 395.635C200.418 391.687 197.431 392.155 194.74 392.344C182.816 393.179 170.964 394.676 159.283 397.198C125.01 404.597 92.2153 415.963 61.8869 433.875C58.208 436.048 54.4892 438.186 50.3407 439.432C43.5239 441.479 39.4365 440.041 35.7052 434.214C35.1488 433.344 34.5041 432.532 33.9083 431.688C22.4785 415.489 7.62892 403.047 -8.99015 392.523C-23.8691 383.102 -39.3634 374.865 -55.6244 368.093C-57.0902 367.482 -58.9811 366.179 -60.2034 367.141C-63.3575 369.623 -67.3163 371.311 -69.3221 374.976C-68.4791 376.567 -67.0949 376.843 -65.9315 377.419C-55.0806 382.784 -44.0841 387.874 -33.3906 393.536C-9.13638 406.378 13.7056 421.227 32.457 441.636C33.7997 443.098 35.2525 444.062 37.4379 443.993C41.7167 443.858 46.0076 444.119 50.2874 443.999C53.5183 443.908 56.8613 443.819 59.7202 442.063C66.2805 438.033 73.1967 434.716 80.792 431.233ZM-82.619 470.499C-84.4313 481.97 -81.289 492.132 -73.9287 500.869C-71.1055 504.22 -67.1581 507.339 -62.4265 505.725C-57.5425 504.06 -56.3013 499.298 -55.9906 494.566C-55.868 492.697 -56.4943 490.791 -56.5234 488.898C-56.6694 479.408 -63.281 469.412 -71.7523 466.016C-77.6193 463.664 -79.2497 464.257 -82.619 470.499Z" fill="black"/>
<path d="M231.84 261.93C223.315 262.373 217.455 253.06 220.339 244.241C222.04 239.041 226.825 234.942 231.08 235.041C235.882 235.153 240.417 239.057 241.808 244.724C243.47 251.5 241.035 259.906 231.84 261.93Z" fill="black"/>
<path d="M132.67 259.28C125.688 259.12 122.039 256.181 120.823 250.067C119.547 243.65 122.908 235.885 127.968 233.832C132.029 232.185 135.616 233.435 138.415 236.448C144.725 243.242 141.616 255.969 132.67 259.28Z" fill="black"/>
<g clip-path="url(#clip1_3157_507)">
<path d="M334.937 304.332C335.488 304.358 335.908 304.416 336.329 304.432C337.747 304.487 338.23 303.831 337.768 302.497C336.948 300.127 337.685 298.109 339.913 296.624C341.921 295.287 344.77 295.377 346.419 296.831C348.793 298.925 348.417 302.373 345.616 304.052C344.303 304.838 342.882 305.089 341.349 304.936C340.185 304.82 339.484 305.762 339.829 306.828C340.922 310.208 338.991 313.293 335.384 313.86C334.664 313.973 333.909 313.935 333.178 313.878C331.483 313.746 330.367 315.194 330.99 316.762C332.045 319.416 330.291 322.322 327.08 323.23C325.992 323.538 324.9 323.511 323.785 323.331C322.461 323.118 321.384 324.228 321.624 325.477C322.503 330.054 319.077 333.392 314.485 332.431C312.35 331.985 311.571 332.718 311.964 334.804C312.676 338.583 308.646 342.019 304.417 341.23C303.951 341.143 303.501 340.952 303.033 340.893C301.756 340.733 300.477 341.843 300.716 342.997C301.223 345.441 300.07 347.104 298.241 348.398C296.067 349.935 293.7 350.251 291.176 349.227C289.767 348.656 287.676 349.942 287.745 351.363C287.869 353.902 286.661 355.624 284.551 356.759C282.276 357.983 279.915 358.208 277.605 356.811C275.595 355.594 274.173 356.121 273.532 358.384C272.344 362.579 266.685 364.342 263.142 361.62C261.149 360.09 259.673 360.491 258.729 362.819C257.143 366.731 251.355 367.866 248.292 364.866C246.733 363.339 245.038 363.638 244.136 365.6C242.243 369.718 236.034 370.457 233.223 366.901C231.972 365.318 230.466 365.383 229.346 367.101C226.848 370.936 220.157 370.901 218.333 366.777C217.708 365.363 215.872 365.276 214.692 366.49C212.65 368.591 210.202 369.162 207.429 368.388C205.937 367.971 204.823 367.068 204.128 365.632C203.254 363.826 201.03 363.644 199.728 365.228C197.648 367.759 193.717 368.382 190.949 366.607C190.081 366.05 189.427 365.321 189.123 364.296C188.603 362.54 186.928 362.181 185.585 363.518C183.512 365.581 180.509 366.092 177.992 364.791C176.753 364.15 175.926 363.171 175.649 361.773C175.292 359.972 173.832 359.436 172.315 360.575C170.259 362.118 168.039 362.61 165.608 361.629C163.962 360.966 162.969 359.761 162.754 357.946C162.554 356.253 161.354 355.7 159.837 356.632C158.248 357.61 156.599 358.168 154.719 357.743C152.441 357.229 151.165 355.771 150.971 353.448C150.841 351.907 149.85 351.393 148.502 352.251C146.709 353.392 144.864 353.889 142.787 353.117C140.82 352.386 139.679 350.822 139.696 348.793C139.71 347.218 139.125 346.856 137.686 347.638C136.003 348.552 134.286 349.079 132.37 348.504C130.057 347.81 128.757 345.832 129.154 343.57C129.244 343.059 129.509 342.555 128.889 342.161C128.364 341.827 127.914 341.94 127.412 342.213C125.967 342.999 124.448 343.296 122.823 342.844C120.25 342.128 119.019 340.169 119.537 337.56C119.629 337.1 119.885 336.647 119.353 336.276C118.858 335.93 118.379 335.977 117.863 336.231C116.307 336.999 114.715 337.422 112.968 336.87C110.577 336.114 109.35 334.101 110.069 331.703C110.363 330.722 110.1 330.233 109.336 329.751C108.618 329.298 108.283 328.73 108.974 327.935C109.585 327.233 110.229 326.912 110.99 327.642C111.91 328.525 112.833 328.507 114.021 328.111C117.617 326.912 120.474 329.081 120.446 332.861C120.436 334.225 121.268 334.771 122.682 334.172C124.287 333.493 125.851 333.426 127.452 334.08C129.423 334.885 130.355 336.482 130.102 338.6C129.926 340.077 130.538 340.559 131.927 339.919C133.59 339.154 135.255 338.884 136.989 339.577C138.691 340.257 139.787 341.399 139.869 343.357C139.95 345.275 140.632 345.63 142.391 344.695C143.449 344.132 144.558 343.878 145.744 343.894C148.378 343.93 150.228 345.573 150.583 348.194C150.797 349.769 151.753 350.274 153.102 349.424C154.712 348.412 156.412 348.033 158.251 348.491C160.217 348.98 161.485 350.179 161.867 352.243C162.255 354.33 163.217 354.716 165.023 353.505C166.695 352.384 168.477 351.948 170.444 352.496C172.389 353.038 173.687 354.165 173.969 356.295C174.174 357.841 175.776 358.376 176.999 357.327C179.222 355.422 181.661 354.97 184.362 356.156C185.548 356.676 186.293 357.613 186.715 358.809C187.378 360.69 188.701 360.956 190.176 359.52C192.293 357.459 194.768 356.781 197.605 357.736C198.967 358.194 199.985 359.053 200.554 360.423C201.26 362.121 203.569 362.385 204.674 360.919C206.553 358.426 209.358 357.53 212.261 358.493C213.906 359.039 215.17 360.009 215.71 361.717C215.941 362.446 216.3 362.891 217.111 362.992C217.941 363.095 218.338 362.668 218.758 362.052C221.647 357.816 228.163 358.519 229.716 362.409C230.209 363.645 231.898 363.508 232.58 362.309C235.241 357.626 239.982 357.059 243.811 360.965C244.771 361.945 246.444 361.441 247.058 359.988C248.505 356.563 252.23 354.951 255.708 356.238C256.574 356.558 257.252 357.119 257.894 357.768C259.076 358.961 260.938 358.437 261.406 356.809C262.742 352.165 268.117 350.492 271.977 353.518C273.41 354.642 275.056 354.073 275.426 352.326C276.338 348.01 280.775 345.78 284.844 347.593C286.997 348.553 288.571 347.535 288.475 345.246C288.355 342.385 290.673 339.821 293.832 339.348C295.154 339.15 296.45 339.219 297.741 339.659C299.54 340.272 300.642 339.311 300.286 337.512C299.59 333.994 303.375 330.545 307.414 331.034C307.936 331.097 308.442 331.286 308.963 331.362C310.108 331.531 311.188 330.636 311.082 329.635C310.6 325.072 313.49 322.233 318.044 322.798C318.306 322.83 318.566 322.921 318.826 322.919C319.989 322.91 320.894 321.767 320.592 320.714C319.447 316.716 322.831 313.039 327.007 313.867C328.15 314.093 328.8 313.768 329.431 312.946C329.787 312.483 329.876 312.067 329.684 311.489C328.723 308.594 329.798 306.263 332.689 304.984C333.358 304.687 334.099 304.553 334.937 304.332ZM267.613 360.424C268.254 360.198 268.944 360.059 269.526 359.73C271.066 358.86 271.479 357.185 270.563 355.834C269.484 354.242 266.754 354.043 265.06 355.432C263.747 356.509 263.548 358.312 264.626 359.464C265.368 360.258 266.359 360.387 267.613 360.424ZM221.177 366.489C222.695 367.629 224.571 367.789 226.033 366.902C227.387 366.081 227.93 364.478 227.271 363.243C226.405 361.619 224.13 361.074 222.258 362.043C220.572 362.915 220.124 364.455 221.177 366.489ZM235.471 365.656C237.104 366.967 239.324 367.046 240.832 365.846C242.153 364.794 242.308 362.977 241.177 361.811C240.018 360.619 237.889 360.483 236.363 361.505C234.897 362.486 234.6 363.625 235.471 365.656ZM284.513 353.618C285.782 351.913 284.604 350.042 282.874 349.567C281.424 349.169 280.157 349.499 279.041 350.415C278.107 351.183 277.772 352.239 278.109 353.398C278.455 354.586 279.377 355.182 280.571 355.301C282.078 355.451 283.365 354.959 284.513 353.618ZM207.899 365.956C208.589 366.243 209.298 366.385 210.052 366.315C211.852 366.147 213.14 365.101 213.307 363.648C213.479 362.154 212.806 361.155 211.312 360.685C209.616 360.152 207.563 360.869 206.752 362.278C206.04 363.514 206.354 364.711 207.899 365.956ZM249.731 360.261C249.272 362.286 249.896 363.499 251.619 363.924C253.708 364.439 255.892 363.461 256.304 361.762C256.621 360.451 256.258 359.368 254.995 358.687C253.28 357.761 251.305 358.274 249.731 360.261ZM292.507 342.365C290.519 343.725 290.942 346.214 292.45 346.967C293.703 347.593 295.795 347.359 296.903 346.342C297.748 345.568 298.434 344.69 297.977 343.429C297.495 342.1 296.437 341.638 295.121 341.601C294.257 341.576 293.447 341.772 292.507 342.365ZM198.244 362.583C198.126 360.797 197.445 359.919 195.979 359.661C194.189 359.347 192.452 360.096 191.788 361.468C191.147 362.796 191.575 364.113 192.878 364.82C194.889 365.911 197.094 365.081 198.244 362.583ZM309.444 335.322C308.146 332.901 304.908 332.689 303.348 334.924C302.42 336.252 302.883 337.913 304.364 338.63C306.537 339.681 309.765 337.971 309.444 335.322ZM184.278 359.335C182.855 357.471 180.085 357.293 178.696 358.977C177.614 360.288 177.864 362.063 179.244 362.77C181.662 364.009 184.991 362.068 184.278 359.335ZM165.357 357.585C165.486 359.093 166.503 359.644 167.819 359.76C169.386 359.898 170.608 359.275 171.296 357.821C171.864 356.622 171.471 355.646 170.387 354.976C168.389 353.743 165.765 354.986 165.357 357.585ZM318.535 329.311C319.788 327.792 319.775 326.399 318.422 325.536C317.243 324.784 315.981 324.89 314.814 325.573C313.715 326.216 313.101 327.191 313.509 328.504C313.894 329.747 314.9 330.144 316.112 330.15C316.928 330.154 317.677 329.94 318.535 329.311ZM323.112 319.989C324.564 321.299 326.592 321.375 327.929 320.168C329.026 319.178 329.134 317.731 328.092 316.862C326.937 315.898 325.635 315.705 324.288 316.487C322.999 317.235 322.391 318.278 323.112 319.989ZM144.653 346.252C143.339 346.514 142.442 347.242 142.195 348.597C142.022 349.54 142.496 350.243 143.265 350.716C144.422 351.427 145.594 351.272 146.704 350.588C147.732 349.955 148.375 349.029 147.994 347.808C147.532 346.326 146.264 346.121 144.653 346.252ZM156.513 350.51C155.638 350.581 154.868 350.928 154.226 351.5C153.105 352.496 153.124 354.109 154.299 354.927C155.509 355.768 156.836 355.627 158.051 354.969C158.995 354.458 159.463 353.535 159.315 352.429C159.117 350.943 157.914 350.745 156.513 350.51ZM131.616 343.771C131.478 344.972 131.932 345.833 133.101 346.22C134.481 346.676 135.716 346.328 136.699 345.307C137.335 344.646 137.708 343.793 137.311 342.854C136.927 341.946 136.143 341.511 135.193 341.455C133.57 341.358 132.348 342.007 131.616 343.771ZM335.569 311.49C336.874 310.999 337.708 310.139 337.615 308.663C337.545 307.546 336.738 307.029 335.78 306.754C334.416 306.362 333.284 306.907 332.359 307.849C331.671 308.549 331.553 309.458 332.025 310.334C332.667 311.524 333.774 311.739 335.007 311.592C335.112 311.58 335.215 311.561 335.569 311.49ZM125.136 335.932C124.49 335.923 123.887 336.073 123.322 336.394C122.018 337.133 121.507 338.325 122.079 339.406C122.813 340.795 124.076 340.843 125.37 340.551C126.655 340.261 127.61 339.466 127.652 338.079C127.695 336.642 126.664 336.105 125.136 335.932ZM112.606 333.775C114.439 335.469 117.078 334.951 117.888 332.752C118.179 331.962 118.072 331.268 117.422 330.749C116.252 329.816 114.953 329.85 113.716 330.547C112.562 331.197 111.881 332.151 112.606 333.775ZM341.513 298.249C341.334 298.357 341.141 298.447 340.978 298.575C339.951 299.381 339.517 300.357 340.209 301.59C340.772 302.593 342.285 302.945 343.743 302.394C344.964 301.932 345.583 301.038 345.396 299.701C345.303 299.035 344.892 298.562 344.306 298.247C343.467 297.795 342.604 297.796 341.513 298.249Z" fill="black"/>
<g clip-path="url(#clip2_3157_507)">
<path d="M254.053 397.712C270.291 394.085 280.518 377.97 276.894 361.717C273.271 345.464 257.17 335.229 240.931 338.855C224.692 342.482 214.466 358.597 218.089 374.85C221.713 391.103 237.814 401.338 254.053 397.712Z" fill="#F4900C"/>
<path d="M253.28 394.243C269.518 390.616 279.745 374.501 276.121 358.248C272.498 341.996 256.397 331.76 240.158 335.387C223.92 339.013 213.693 355.129 217.316 371.381C220.94 387.634 237.041 397.869 253.28 394.243Z" fill="#FFCC4D"/>
<path d="M252.508 390.781C265.881 387.794 274.303 374.523 271.319 361.138C268.335 347.754 255.075 339.324 241.702 342.311C228.329 345.298 219.908 358.569 222.892 371.954C225.875 385.338 239.135 393.767 252.508 390.781Z" fill="#FFE8B6"/>
<path d="M252.122 389.054C265.495 386.068 273.917 372.796 270.933 359.412C267.949 346.027 254.689 337.598 241.316 340.584C227.943 343.571 219.522 356.843 222.506 370.227C225.49 383.612 238.749 392.041 252.122 389.054Z" fill="#FFAC33"/>
<g clip-path="url(#clip3_3157_507)">
<path d="M259.957 369.482C260.177 369.946 260.858 370.198 260.405 370.821C261.456 371.784 259.96 373.018 260.761 374.075C261.022 374.419 260.75 375.052 260.432 375.487C260.149 375.875 259.848 376.258 259.866 376.785C259.869 376.875 259.813 377.035 259.757 377.048C258.913 377.242 258.577 377.946 258.173 378.587C258.084 378.726 257.921 378.766 257.765 378.697C256.731 378.239 255.646 378.404 254.572 378.428C254.422 378.431 254.219 378.461 254.129 378.38C253.314 377.64 252.089 377.571 251.374 376.667C251.063 376.275 249.193 375.867 248.756 376.1C248.315 376.335 248.003 376.7 247.957 377.231C247.941 377.407 248.009 377.643 247.919 377.751C247.025 378.823 246.406 380.123 245.25 380.974C245.174 381.03 244.995 381 244.968 381.059C244.517 382.014 243.602 381.49 242.927 381.716C242.487 381.863 242.161 381.527 241.766 381.467C241.148 381.373 240.535 381.204 239.941 381.006C239.62 380.899 239.427 380.585 239.357 380.252C239.161 379.319 238.607 378.599 237.98 377.932C237.703 377.638 237.548 377.37 237.805 377.003C238.022 376.694 238.031 376.414 237.767 376.115C237.356 375.647 237.461 375.007 237.493 374.511C237.565 373.399 237.053 372.232 237.737 371.169C237.762 371.13 237.779 371.055 237.759 371.023C237.211 370.165 237.921 369.699 238.352 369.163C238.737 368.684 238.522 368.204 238.431 367.713C238.379 367.43 238.212 367.132 238.587 366.907C239.703 366.237 240.049 365.075 240.355 363.934C240.505 363.372 240.616 363 241.285 362.859C241.937 362.721 242.101 361.903 242.673 361.554C243.816 360.857 244.896 360.002 246.367 360.392C246.705 360.482 246.981 360.332 247.278 360.296C248.188 360.186 249.115 360.254 249.989 359.865C250.106 359.813 250.372 359.994 250.515 360.126C251.067 360.63 251.629 361.083 252.434 361.087C252.566 361.088 252.721 361.203 252.823 361.307C253.608 362.1 254.613 362.531 255.595 362.986C256.04 363.192 256.157 363.529 256.222 363.941C256.338 364.672 256.556 365.331 257.36 365.589C257.428 365.611 257.53 365.671 257.535 365.721C257.607 366.457 258.256 366.729 258.723 367.087C259.521 367.697 259.615 368.606 259.957 369.482Z" fill="#FFCC4D"/>
<path d="M242.179 358.628C242.039 359.716 241.249 360.47 240.094 360.667C238.093 361.009 236.983 360.207 236.292 358.291C235.766 356.831 235.696 355.411 235.944 353.927C236.19 352.454 237.76 351.781 239.114 352.324C241.47 353.268 242.042 355.259 242.472 357.412C242.562 357.862 242.185 358.162 242.179 358.628Z" fill="#FFCC4D"/>
<path d="M251.583 357.229C250.287 358.357 248.985 358.675 247.583 358.063C246.49 357.586 246.334 356.513 246.206 355.547C245.982 353.851 246.511 352.331 247.542 350.946C248.49 349.672 249.76 349.57 250.741 350.803C250.913 351.02 251.039 351.285 251.295 351.415C252.076 351.813 252.311 352.486 252.278 353.302C252.274 353.403 252.222 353.536 252.267 353.6C253.263 355.019 252.101 356.039 251.583 357.229Z" fill="#FFCC4D"/>
<path d="M256.709 354.924C257.838 354.528 258.931 354.452 259.957 355.008C260.738 355.433 260.944 356.306 261.079 357.072C261.347 358.605 261.12 360.055 259.759 361.09C259.739 361.105 259.721 361.124 259.702 361.139C258.978 361.721 258.098 361.353 257.298 361.506C256.49 361.66 256.02 361.036 255.541 360.036C254.574 358.016 255.258 356.424 256.709 354.924Z" fill="#FFCC4D"/>
<path d="M231.304 366.146C230.551 365.034 230.889 363.792 230.76 362.642C230.678 361.908 231.477 361.455 232.149 361.202C232.827 360.946 233.533 360.729 234.17 361.422C234.647 361.94 235.205 362.391 235.762 362.826C236.706 363.564 236.642 364.701 236.952 365.69C236.972 365.754 236.943 365.842 236.915 365.909C236.681 366.485 235.299 367.257 234.676 367.367C233.315 367.608 232.273 367.095 231.304 366.146Z" fill="#FFCC4D"/>
</g>
</g>
</g>
<g clip-path="url(#clip4_3157_507)">
<path d="M100.121 247.23L103.763 232.855L112.607 225.38L123.532 220.78L136.017 219.055L147.462 220.205L159.948 225.38L168.792 232.855L172.433 244.355L170.353 255.855L163.069 265.055L146.942 270.805L130.815 271.955L119.37 268.505L106.884 261.03L100.121 247.23Z" fill="black"/>
<path d="M100.121 247.23L103.763 232.855L112.607 225.38L123.532 220.78L136.017 219.055L147.462 220.205L159.948 225.38L168.792 232.855L172.433 244.355L170.353 255.855L163.069 265.055L146.942 270.805L130.815 271.955L119.37 268.505L106.884 261.03L100.121 247.23Z" fill="black"/>
<path d="M100.121 247.23L103.763 232.855L112.607 225.38L123.532 220.78L136.017 219.055L147.462 220.205L159.948 225.38L168.792 232.855L172.433 244.355L170.353 255.855L163.069 265.055L146.942 270.805L130.815 271.955L119.37 268.505L106.884 261.03L100.121 247.23Z" fill="black"/>
<path d="M100.121 247.23L103.763 232.855L112.607 225.38L123.532 220.78L136.017 219.055L147.462 220.205L159.948 225.38L168.792 232.855L172.433 244.355L170.353 255.855L163.069 265.055L146.942 270.805L130.815 271.955L119.37 268.505L106.884 261.03L100.121 247.23Z" fill="black"/>
<path d="M100.121 247.23L103.763 232.855L112.607 225.38L123.532 220.78L136.017 219.055L147.462 220.205L159.948 225.38L168.792 232.855L172.433 244.355L170.353 255.855L163.069 265.055L146.942 270.805L130.815 271.955L119.37 268.505L106.884 261.03L100.121 247.23Z" stroke="black" stroke-width="1.09524" stroke-linecap="round"/>
<path d="M201.046 247.23L204.688 232.855L213.531 225.38L224.456 220.78L236.942 219.055L248.387 220.205L260.872 225.38L269.716 232.855L273.358 244.355L271.277 255.855L263.994 265.055L247.867 270.805L231.74 271.955L220.294 268.505L207.809 261.03L201.046 247.23Z" fill="black"/>
<path d="M201.046 247.23L204.688 232.855L213.531 225.38L224.456 220.78L236.942 219.055L248.387 220.205L260.872 225.38L269.716 232.855L273.358 244.355L271.277 255.855L263.994 265.055L247.867 270.805L231.74 271.955L220.294 268.505L207.809 261.03L201.046 247.23Z" fill="black"/>
<path d="M201.046 247.23L204.688 232.855L213.531 225.38L224.456 220.78L236.942 219.055L248.387 220.205L260.872 225.38L269.716 232.855L273.358 244.355L271.277 255.855L263.994 265.055L247.867 270.805L231.74 271.955L220.294 268.505L207.809 261.03L201.046 247.23Z" fill="black"/>
<path d="M201.046 247.23L204.688 232.855L213.531 225.38L224.456 220.78L236.942 219.055L248.387 220.205L260.872 225.38L269.716 232.855L273.358 244.355L271.277 255.855L263.994 265.055L247.867 270.805L231.74 271.955L220.294 268.505L207.809 261.03L201.046 247.23Z" fill="black"/>
<path d="M201.046 247.23L204.688 232.855L213.531 225.38L224.456 220.78L236.942 219.055L248.387 220.205L260.872 225.38L269.716 232.855L273.358 244.355L271.277 255.855L263.994 265.055L247.867 270.805L231.74 271.955L220.294 268.505L207.809 261.03L201.046 247.23Z" stroke="black" stroke-width="1.09524" stroke-linecap="round"/>
<path d="M113.839 268.904C104.823 264.23 99.4528 257.959 97.4791 250.139C97.2418 249.199 97.1048 248.235 97.0857 247.28C97.0702 246.504 96.6611 246.26 95.6442 246.283C93.8981 246.322 92.1479 246.264 90.402 246.305C89.3346 246.33 88.81 246.087 88.8829 245.257C88.9459 244.539 88.9481 243.814 88.8902 243.096C88.8235 242.269 89.3384 242.02 90.4124 242.047C92.158 242.092 93.9083 242.035 95.6545 242.073C96.7159 242.096 97.2049 241.888 97.4168 241.028C99.6741 231.862 106.356 224.915 117.527 220.333C124.012 217.674 131.037 216.609 138.489 216.879C149.59 217.281 158.781 220.557 166.238 226.464C170.195 229.599 172.876 233.279 174.586 237.339C174.694 237.596 174.81 237.852 174.982 238.244C182.845 235.317 190.681 235.268 198.473 238.212C199.046 237.821 199.066 237.313 199.276 236.877C204.636 225.748 215.263 218.951 231.293 217.149C252.597 214.754 272.16 225.094 276.114 240.474C276.52 242.052 276.52 242.053 278.793 242.055C280.352 242.056 281.911 242.08 283.469 242.045C284.478 242.022 284.957 242.263 284.891 243.046C284.825 243.833 284.83 244.626 284.889 245.413C284.942 246.13 284.519 246.414 283.569 246.395C281.729 246.357 279.886 246.365 278.048 246.298C276.994 246.259 276.696 246.556 276.63 247.305C276.05 253.874 272.627 259.597 266.622 264.493C260.361 269.597 252.556 272.836 243.245 273.776C228.579 275.256 216.199 271.868 206.551 263.694C199.94 258.094 197.114 251.433 197.452 244.081C197.5 243.02 196.996 242.463 195.755 241.996C189.664 239.704 183.646 239.742 177.613 242.11C176.514 242.542 176.17 243.034 176.244 243.972C177.36 258.094 163.211 271.107 143.953 273.644C133.084 275.076 123.045 273.509 113.839 268.904ZM267.206 256.412C270.547 251.643 271.694 246.594 270.416 241.341C267.242 228.294 250.272 219.47 232.177 221.335C212.706 223.341 200.614 236.897 203.75 249.64C207.168 263.533 226.855 272.783 245.649 269.066C255.276 267.162 262.322 262.859 267.206 256.412ZM166.277 257.007C169.814 252.168 171.194 247.06 169.959 241.616C166.804 227.712 147.868 218.498 129.014 221.701C109.735 224.975 98.4441 239.114 104.448 252.878C109.208 263.792 123.739 270.861 139.669 269.759C151.419 268.945 160.202 264.517 166.277 257.007Z" fill="black"/>
</g>
<g clip-path="url(#clip5_3157_507)">
<path d="M321.749 110.251C315.138 103.641 306.349 100 297 100C287.651 100 278.862 103.641 272.251 110.251C265.641 116.862 262 125.651 262 135C262 144.349 265.641 153.138 272.251 159.749C278.862 166.359 287.651 170 297 170C306.349 170 315.138 166.359 321.749 159.749C328.359 153.138 332 144.349 332 135C332 125.651 328.359 116.862 321.749 110.251ZM297 167.211C279.239 167.211 264.789 152.761 264.789 135C264.789 117.239 279.239 102.789 297 102.789C314.761 102.789 329.211 117.239 329.211 135C329.211 152.761 314.761 167.211 297 167.211Z" fill="black"/>
<path d="M297 106.695C281.391 106.695 268.693 119.394 268.693 135.002C268.693 150.611 281.391 163.309 297 163.309C312.608 163.309 325.307 150.611 325.307 135.002C325.307 119.394 312.608 106.695 297 106.695ZM297 160.52C282.929 160.52 271.482 149.073 271.482 135.002C271.482 120.931 282.929 109.484 297 109.484C311.071 109.484 322.518 120.931 322.518 135.002C322.518 149.073 311.071 160.52 297 160.52Z" fill="black"/>
<path d="M310.522 143.236C310.648 143.792 311.326 144.23 310.684 144.796C311.591 146.095 309.669 147.069 310.283 148.409C310.483 148.846 310.034 149.466 309.584 149.861C309.183 150.212 308.763 150.555 308.656 151.13C308.638 151.228 308.538 151.389 308.474 151.389C307.512 151.395 306.977 152.077 306.383 152.673C306.253 152.803 306.067 152.807 305.915 152.694C304.903 151.947 303.686 151.863 302.515 151.629C302.351 151.596 302.124 151.58 302.046 151.47C301.341 150.471 300.028 150.1 299.471 148.947C299.229 148.446 297.298 147.551 296.768 147.698C296.233 147.847 295.806 148.166 295.627 148.731C295.568 148.918 295.584 149.19 295.46 149.285C294.232 150.231 293.245 151.49 291.785 152.133C291.689 152.175 291.503 152.099 291.458 152.156C290.739 153.083 289.873 152.294 289.085 152.375C288.573 152.428 288.3 151.985 287.886 151.824C287.238 151.572 286.614 151.241 286.017 150.882C285.696 150.689 285.561 150.301 285.566 149.924C285.579 148.864 285.152 147.951 284.633 147.075C284.404 146.69 284.3 146.361 284.668 146.026C284.978 145.743 285.056 145.442 284.842 145.054C284.509 144.448 284.778 143.779 284.933 143.249C285.28 142.061 285.007 140.672 286.006 139.685C286.042 139.649 286.079 139.572 286.064 139.532C285.678 138.469 286.561 138.136 287.158 137.659C287.691 137.233 287.574 136.661 287.595 136.107C287.606 135.788 287.497 135.424 287.958 135.271C289.331 134.815 289.989 133.639 290.596 132.476C290.895 131.903 291.105 131.527 291.865 131.536C292.605 131.545 292.981 130.697 293.687 130.457C295.096 129.979 296.474 129.313 297.975 130.092C298.321 130.272 298.657 130.175 298.988 130.209C300.001 130.31 300.99 130.608 302.033 130.398C302.172 130.37 302.417 130.63 302.541 130.808C303.017 131.488 303.517 132.115 304.39 132.314C304.533 132.347 304.673 132.51 304.759 132.647C305.418 133.696 306.404 134.408 307.36 135.138C307.793 135.469 307.838 135.863 307.809 136.325C307.758 137.146 307.836 137.913 308.645 138.387C308.714 138.427 308.811 138.517 308.804 138.573C308.704 139.388 309.341 139.84 309.762 140.341C310.48 141.196 310.363 142.204 310.522 143.236Z" fill="black"/>
<path d="M293.857 127.163C293.443 128.309 292.404 128.935 291.102 128.869C288.849 128.754 287.839 127.617 287.552 125.372C287.334 123.662 287.602 122.107 288.23 120.558C288.853 119.021 290.719 118.67 292.058 119.587C294.385 121.181 294.524 123.477 294.47 125.916C294.459 126.426 293.977 126.66 293.857 127.163Z" fill="black"/>
<path d="M304.398 127.939C302.72 128.848 301.23 128.877 299.857 127.874C298.787 127.092 298.877 125.891 298.972 124.813C299.138 122.921 300.08 121.402 301.534 120.15C302.87 118.998 304.273 119.195 305.038 120.769C305.173 121.046 305.246 121.364 305.492 121.567C306.243 122.187 306.335 122.973 306.102 123.85C306.074 123.959 305.985 124.09 306.018 124.171C306.756 125.95 305.248 126.774 304.398 127.939Z" fill="black"/>
<path d="M310.518 126.675C311.838 126.52 313.043 126.702 314.022 127.554C314.767 128.203 314.779 129.2 314.739 130.062C314.66 131.789 314.063 133.306 312.336 134.098C312.31 134.11 312.287 134.126 312.261 134.138C311.335 134.594 310.469 133.981 309.565 133.953C308.651 133.925 308.292 133.134 308.014 131.935C307.454 129.511 308.58 127.951 310.518 126.675Z" fill="black"/>
<path d="M280.242 132.687C279.694 131.3 280.36 130.035 280.498 128.758C280.587 127.942 281.564 127.644 282.354 127.532C283.152 127.42 283.97 127.355 284.494 128.261C284.886 128.938 285.382 129.561 285.881 130.168C286.727 131.196 286.382 132.413 286.479 133.561C286.485 133.634 286.433 133.723 286.387 133.789C285.993 134.357 284.307 134.859 283.604 134.828C282.069 134.759 281.063 133.951 280.242 132.687Z" fill="black"/>
</g>
</g>
<defs>
<clipPath id="clip0_3157_507">
<rect width="400" height="400" fill="white"/>
</clipPath>
<clipPath id="clip1_3157_507">
<rect width="256" height="103" fill="white" transform="translate(105 301)"/>
</clipPath>
<clipPath id="clip2_3157_507">
<rect width="63.7979" height="63.8482" fill="white" transform="matrix(0.975957 -0.217962 0.2176 0.976038 209.027 342.344)"/>
</clipPath>
<clipPath id="clip3_3157_507">
<rect width="38.9592" height="36.5531" fill="white" transform="matrix(0.975957 -0.217962 0.2176 0.976038 223.288 351.336)"/>
</clipPath>
<clipPath id="clip4_3157_507">
<rect width="180" height="69" fill="white" transform="translate(97 211)"/>
</clipPath>
<clipPath id="clip5_3157_507">
<rect width="70" height="70" fill="white" transform="translate(262 100)"/>
</clipPath>
</defs>
</svg>
